<svg fill="none" height="24" viewBox="0 0 24 24" width="24" xmlns="http://www.w3.org/2000/svg">
    <g clip-path="url(#clip0)" id="Credit Card">
        <path clip-rule="evenodd" d="M4.25 15C4.25 13.4812 5.48122 12.25 7 12.25H21C22.5188 12.25 23.75 13.4812 23.75 15V21C23.75 22.5188 22.5188 23.75 21 23.75H7C5.48122 23.75 4.25 22.5188 4.25 21V15ZM7 13.75C6.30964 13.75 5.75 14.3096 5.75 15V21C5.75 21.6904 6.30964 22.25 7 22.25H21C21.6904 22.25 22.25 21.6904 22.25 21V15C22.25 14.3096 21.6904 13.75 21 13.75H7Z" fill="#B4AFA8" fill-rule="evenodd" id="Rectangle 17 (Stroke)" />
        <path clip-rule="evenodd" d="M0.883884 14.6724C-0.190057 13.5985 -0.190059 11.8573 0.883883 10.7834L10.7834 0.883867C11.8573 -0.190075 13.5985 -0.190075 14.6725 0.883867L18.9151 5.12651C19.989 6.20045 19.989 7.94165 18.9151 9.01559L16.4004 11.5303C16.1075 11.8232 15.6326 11.8232 15.3397 11.5303C15.0468 11.2374 15.0468 10.7625 15.3397 10.4697L17.8544 7.95493C18.3426 7.46678 18.3426 6.67532 17.8544 6.18717L13.6118 1.94453C13.1236 1.45637 12.3322 1.45637 11.844 1.94453L1.94454 11.844C1.45639 12.3322 1.45639 13.1236 1.94454 13.6118L3.53033 15.1976C3.82322 15.4905 3.82322 15.9653 3.53033 16.2582C3.23744 16.5511 2.76256 16.5511 2.46967 16.2582L0.883884 14.6724Z" fill="#B4AFA8" fill-rule="evenodd" id="Rectangle 18 (Stroke)" />
        <path clip-rule="evenodd" d="M4.25 20C4.25 19.5858 4.58579 19.25 5 19.25H23C23.4142 19.25 23.75 19.5858 23.75 20C23.75 20.4142 23.4142 20.75 23 20.75H5C4.58579 20.75 4.25 20.4142 4.25 20Z" fill="#B4AFA8" fill-rule="evenodd" id="Vector 16 (Stroke)" />
        <path clip-rule="evenodd" d="M17.5198 3.95937C17.8184 4.24647 17.8277 4.72125 17.5406 5.01983L11.2906 11.5198C11.0035 11.8184 10.5287 11.8277 10.2302 11.5406C9.93159 11.2535 9.92228 10.7787 10.2094 10.4802L16.4594 3.98017C16.7465 3.68159 17.2213 3.67228 17.5198 3.95937Z" fill="#B4AFA8" fill-rule="evenodd" id="Vector 17 (Stroke)" />
    </g>
    <defs>
        <clipPath id="clip0">
            <rect fill="white" height="24" width="24" />
        </clipPath>
    </defs>
</svg>
